<svg width="40" height="40" viewBox="0 0 40 40" fill="none" xmlns="http://www.w3.org/2000/svg">
<path d="M4.47458 17.4843C14.1401 13.3921 20.5836 10.694 23.8054 9.39048C33.0151 5.66832 34.9264 5.02186 36.1747 5.00021C36.4492 4.99568 37.0604 5.06164 37.4593 5.3753C37.7908 5.63962 37.8841 5.99708 37.9307 6.24781C37.9721 6.49854 38.0292 7.06998 37.9826 7.51606C37.4853 12.6112 35.3253 24.9754 34.2272 30.6823C33.7662 33.097 32.8493 33.9066 31.9636 33.9856C30.0367 34.1578 28.5759 32.7491 26.7112 31.5613C23.795 29.702 22.1479 28.545 19.3146 26.731C16.041 24.6346 18.1646 23.4821 20.0294 21.5991C20.5163 21.1062 29.0007 13.607 29.1612 12.9269C29.182 12.8418 29.2028 12.5246 29.006 12.3574C28.8143 12.1898 28.5293 12.2472 28.3221 12.2925C28.0268 12.3569 23.3702 15.3516 14.3366 21.2759C13.0158 22.159 11.8193 22.5895 10.7419 22.5668C9.56092 22.5421 7.28197 21.9163 5.58818 21.3816C3.51627 20.7256 1.86384 20.3787 2.00887 19.2645C2.08139 18.6845 2.9051 18.091 4.47458 17.4843Z" fill="white"/>
</svg>
